<svg width="32" height="32" viewBox="0 0 32 32" fill="none" xmlns="http://www.w3.org/2000/svg">
<g clip-path="url(#clip0_2358_1718)">
<path d="M5.28784 32C4.35784 32 3.44784 31.76 2.64784 31.29C1.01784 30.35 0.00784403 28.59 0.00784403 26.71V5.29C-0.00215597 2.37 2.36784 0 5.28784 0H26.7178C29.6278 0 32.0078 2.37 32.0078 5.29V26.72C32.0078 28.6 30.9978 30.36 29.3678 31.3C28.5678 31.76 5.29784 32.01 5.29784 32.01L5.28784 32Z" fill="white"/>
<path d="M1 5.29C1 2.92 2.92 1 5.29 1H26.72C29.09 1 31.01 2.92 31.01 5.29V26.72C31.01 28.31 30.15 29.69 28.87 30.43L27.32 29.93C26.25 29.59 25.09 29.68 24.09 30.18L22.44 31.01H19.23L16.02 29.4L12.81 31.01H9.6L7.95 30.18C6.95 29.68 5.79 29.59 4.72 29.93L3.17 30.43C1.89 29.69 1.03 28.3 1.03 26.72V5.29H1Z" fill="#C6E9F4"/>
<path d="M9.57 10.64V21.35H1V22.42H9.57V30.99H10.64V22.42H21.35V30.99H22.42V22.42H30.99V21.35H22.42V10.64H30.99V9.57H22.42V1H21.35V9.57H10.64V1H9.57V9.57H1V10.64H9.57ZM10.64 10.64H21.35V21.35H10.64V10.64Z" fill="#95AFB7"/>
<path d="M5.28625 31H9.57625V9.8C9.57625 9.08 8.98625 8.5 8.26625 8.5H4.46625C3.73625 8.5 3.15625 9.08 3.15625 9.8V30.43C3.78625 30.79 4.51625 31 5.29625 31H5.28625Z" fill="#39DAFF"/>
<path d="M17.8991 17.0703H14.0991C13.3691 17.0703 12.7891 17.6503 12.7891 18.3703V31.0003H19.2191V18.3703C19.2191 17.6503 18.6291 17.0703 17.9091 17.0703H17.8991Z" fill="#29A5C5"/>
<path d="M22.4297 31.0012H26.7197C27.4997 31.0012 28.2297 30.7913 28.8597 30.4312V6.58125C28.8597 5.86125 28.2697 5.28125 27.5497 5.28125H23.7497C23.0197 5.28125 22.4397 5.86125 22.4397 6.58125V31.0012H22.4297Z" fill="#196F8C"/>
</g>
<defs>
<clipPath id="clip0_2358_1718">
<rect width="32" height="32" fill="white"/>
</clipPath>
</defs>
</svg>
