<svg width="32" height="29" viewBox="0 0 32 29" fill="none" xmlns="http://www.w3.org/2000/svg">
<g clip-path="url(#clip0_2353_1646)">
<path d="M9.83043 28.82C9.44043 28.82 9.08043 28.65 8.84044 28.35C8.60044 28.06 8.51044 27.68 8.58043 27.31C8.83043 26.09 9.90044 25.21 11.1404 25.21H11.5204V24.6C9.11044 23.48 7.18043 21.47 6.16043 19.04C5.50043 19.22 4.82043 19.32 4.13043 19.33H4.03043C3.11043 19.33 2.22043 19.18 1.37043 18.87C0.710435 18.64 0.210435 18.09 0.0604346 17.4C-0.0995654 16.7 0.110435 15.98 0.620435 15.47L7.38043 8.71C7.42043 8.65 7.45043 8.61 7.48043 8.57C7.49043 4.09 10.8004 0.44 15.2104 0.04C15.4604 0.02 15.7304 0 16.0004 0C16.2704 0 16.5404 0.01 16.7904 0.04C21.1904 0.45 24.5104 4.09 24.5104 8.51L24.6004 8.67L31.3904 15.47C31.9004 15.98 32.1104 16.7 31.9504 17.4C31.7904 18.09 31.3004 18.64 30.6304 18.88C29.7904 19.18 28.9004 19.33 27.9804 19.33H27.8804C27.1904 19.33 26.5004 19.22 25.8404 19.04C24.8204 21.47 22.9004 23.47 20.5004 24.59V25.2H20.8704C22.1204 25.2 23.2004 26.09 23.4304 27.31C23.5004 27.67 23.4104 28.05 23.1704 28.34C22.9304 28.64 22.5704 28.81 22.1804 28.81H9.84044L9.83043 28.82Z" fill="white"/>
<path d="M14.1312 26.2095H17.8812L17.8612 19.7695H19.4712L19.4912 26.2095H20.8512C21.6312 26.2095 22.2912 26.7695 22.4312 27.5095C22.4612 27.6695 22.3312 27.8195 22.1612 27.8195H9.8212C9.6512 27.8195 9.5212 27.6695 9.5512 27.5095C9.7012 26.7695 10.3412 26.2095 11.1312 26.2095H12.5112L12.4912 19.7695H14.1012L14.1212 26.2095H14.1312Z" fill="#FF822D"/>
<path d="M11.1481 11.3014C11.1581 9.88141 10.7481 8.55141 10.0581 7.44141L1.3181 16.1714C0.758104 16.7314 0.968104 17.6714 1.7081 17.9314C2.4581 18.2014 3.2781 18.3414 4.1181 18.3314C7.9581 18.2914 11.0981 15.1514 11.1481 11.3014Z" fill="#F9C23C"/>
<path d="M20.8459 11.3114C20.8359 9.88141 21.2359 8.55141 21.9359 7.44141L30.6659 16.1814C31.2259 16.7414 31.0159 17.6814 30.2759 17.9414C29.5259 18.2114 28.7059 18.3514 27.8659 18.3414C24.0259 18.3014 20.8859 15.1614 20.8359 11.3114H20.8459Z" fill="#F9C23C"/>
<path d="M23.7216 9.16C23.5816 8.97 23.5116 8.74 23.5116 8.51C23.5116 4.59 20.5216 1.39 16.7016 1.03C16.4716 1.01 16.2416 1 16.0016 1C15.7616 1 15.5316 1.01 15.3016 1.03C11.4816 1.38 8.49156 4.6 8.49156 8.51C8.49156 8.75 8.41156 8.97 8.28156 9.16C7.07156 10.77 6.35156 12.78 6.35156 14.94C6.35156 20.27 10.6716 24.59 16.0016 24.59C21.3316 24.59 25.6516 20.27 25.6516 14.94C25.6516 12.77 24.9316 10.77 23.7216 9.16Z" fill="#FCD53F"/>
<path d="M12.7909 6.89937C12.7909 7.19937 12.5509 7.43937 12.2509 7.43937C11.9509 7.43937 11.7109 7.19937 11.7109 6.89937C11.7109 6.59937 11.9509 6.35938 12.2509 6.35938C12.5509 6.35938 12.7909 6.59937 12.7909 6.89937Z" fill="#212121"/>
<path d="M20.2987 6.89937C20.2987 7.19937 20.0588 7.43937 19.7588 7.43937C19.4588 7.43937 19.2188 7.19937 19.2188 6.89937C19.2188 6.59937 19.4588 6.35938 19.7588 6.35938C20.0588 6.35938 20.2987 6.59937 20.2987 6.89937Z" fill="#212121"/>
<path d="M15.9859 6.35938C14.8059 6.35938 13.8359 7.32938 13.8359 8.50938H18.1259C18.1259 7.32938 17.1559 6.35938 15.9759 6.35938H15.9859Z" fill="#FF822D"/>
</g>
<defs>
<clipPath id="clip0_2353_1646">
<rect width="32" height="28.82" fill="white"/>
</clipPath>
</defs>
</svg>
