<svg width="45" height="63" viewBox="0 0 45 63" fill="none" xmlns="http://www.w3.org/2000/svg">
<g clip-path="url(#clip0_2286_934)">
<path d="M29.7783 38.2184C27.7217 38.2184 25.4348 37.2054 22.9826 35.2097C22.8217 35.0793 22.6609 34.9402 22.4913 34.7967C22.3261 34.9402 22.1609 35.0793 22.0043 35.2054C19.5478 37.2054 17.2609 38.2184 15.2043 38.2184C14.2043 38.2184 13.2913 37.9793 12.4826 37.5011C11.0391 36.6663 8.74348 34.3271 9.74348 28.1184C9.77826 27.9054 9.81739 27.6837 9.86087 27.4532C5.1 25.7663 2.5 23.2141 2.5 20.175C2.5 17.1358 5.16087 14.5576 9.86522 12.888C9.82174 12.6663 9.78261 12.4489 9.74783 12.2271C8.74783 6.01844 11.0435 3.67931 12.5 2.83584C13.2913 2.37931 14.1913 2.14453 15.1652 2.14453C17.8 2.14453 20.4522 3.82714 22.5 5.57931C23.1174 5.05323 23.7913 4.52714 24.5043 4.05757L24.6478 3.96627C26.2522 2.92279 28.0478 2.14453 29.8304 2.14453C30.8043 2.14453 31.7 2.37497 32.4913 2.83584C35.0913 4.32279 36.0217 7.93584 35.113 12.8663C39.4087 14.3924 42 16.6967 42.4217 19.375L42.4826 19.4358L42.5 20.1706C42.5 23.1793 39.8391 25.788 35.1348 27.4576C35.1783 27.6793 35.2174 27.8967 35.2522 28.1184C36.2304 34.3358 33.9391 36.6706 32.487 37.5097C31.6913 37.9793 30.7739 38.2184 29.7739 38.2184H29.7783Z" fill="white"/>
<path d="M22.4944 23.4154C24.29 23.4154 25.7465 21.9589 25.7465 20.1589C25.7465 18.3589 24.29 16.9023 22.4944 16.9023C20.6987 16.9023 19.2422 18.3589 19.2422 20.1589C19.2422 21.9589 20.6987 23.4154 22.4944 23.4154Z" fill="#61DAFB"/>
<path d="M40.7465 20.1586C40.7465 17.602 37.7465 15.3803 33.0813 14.0455C34.2552 9.32812 33.8422 5.61508 31.6204 4.34551C29.3987 3.05855 25.9857 4.56725 22.4944 7.93247C19.0031 4.54986 15.59 3.05855 13.3683 4.34551C11.5291 5.41073 10.8465 8.11073 11.4639 11.9499C11.577 12.6325 11.7335 13.3325 11.9074 14.0629C7.24219 15.3977 4.24219 17.6194 4.24219 20.1759C4.24219 22.7325 7.24219 24.9412 11.9074 26.289C11.7335 27.002 11.5726 27.7194 11.4639 28.402C10.8465 32.2455 11.5291 34.9455 13.3683 36.0064C13.9074 36.3238 14.5248 36.4846 15.2074 36.4846C16.8248 36.4846 18.777 35.5933 20.9074 33.8629C21.4291 33.4325 21.9726 32.9412 22.4944 32.4325C23.0161 32.9412 23.5596 33.4325 24.0813 33.8629C26.2074 35.5933 28.1596 36.4846 29.7813 36.4846C30.4639 36.4846 31.0813 36.3238 31.6204 36.0064C33.4596 34.9412 34.1422 32.2412 33.5422 28.402C33.4291 27.7194 33.2726 27.0194 33.0987 26.289C37.7639 24.9542 40.7639 22.7325 40.7639 20.1759L40.7465 20.1586ZM30.8291 5.70638C32.2596 6.53247 32.577 9.54986 31.5422 13.6455C30.0509 13.2977 28.4161 13.0412 26.6857 12.8846C25.6857 11.4716 24.6378 10.1846 23.6074 9.05855C26.0204 6.72377 28.2596 5.45421 29.7987 5.45421C30.1944 5.45421 30.5465 5.53247 30.8465 5.70638H30.8291ZM27.59 23.0977C27.0204 24.0673 26.4335 25.0194 25.8291 25.9064C24.7639 25.9846 23.6552 26.0325 22.5118 26.0325C21.3683 26.0325 20.2596 25.9846 19.1944 25.9064C18.59 25.0151 17.99 24.0629 17.4335 23.0977C16.8639 22.1151 16.3552 21.1455 15.877 20.1586C16.3552 19.1759 16.8596 18.2064 17.4335 17.2194C18.0031 16.2194 18.6074 15.2803 19.1944 14.4107C20.2596 14.3325 21.3683 14.2846 22.5118 14.2846C23.6552 14.2846 24.7639 14.3325 25.8291 14.4107C26.4335 15.2846 27.0204 16.2194 27.59 17.2194C28.1465 18.189 28.6683 19.1716 29.1465 20.1586C28.6857 21.1281 28.177 22.0977 27.59 23.0977ZM29.9726 22.0151C30.4161 23.0803 30.7987 24.1107 31.1161 25.1281C30.0987 25.3499 29.0031 25.5586 27.8465 25.6977C28.2291 25.1107 28.5944 24.5064 28.9596 23.889C29.3248 23.2716 29.6596 22.6325 29.977 22.0151H29.9726ZM22.4944 30.1151C21.7813 29.3368 21.0639 28.4803 20.3683 27.5586C21.0683 27.589 21.7639 27.6064 22.4944 27.6064C23.2248 27.6064 23.9248 27.589 24.6204 27.5586C23.9204 28.4803 23.2074 29.3194 22.4944 30.1151ZM17.1465 25.702C15.99 25.5586 14.8944 25.3673 13.877 25.1325C14.1944 24.1151 14.577 23.0846 15.0204 22.0194C15.3378 22.6368 15.6726 23.2759 16.0378 23.8933C16.4031 24.5107 16.7683 25.1151 17.1509 25.702H17.1465ZM15.0204 18.2846C14.577 17.2194 14.1944 16.189 13.877 15.1716C14.8944 14.9499 15.99 14.7412 17.1465 14.602C16.7639 15.189 16.3987 15.7933 16.0335 16.4107C15.6683 17.0281 15.3335 17.6499 15.0161 18.2846H15.0204ZM22.4944 10.1846C23.1944 10.9455 23.9074 11.8064 24.6204 12.7412C23.9204 12.7107 23.2248 12.6933 22.4944 12.6933C21.7639 12.6933 21.0639 12.7107 20.3683 12.7412C21.0813 11.8064 21.7813 10.9455 22.4944 10.1846ZM28.9552 16.4281C28.59 15.8107 28.2248 15.2064 27.8422 14.6194C28.9987 14.7629 30.0944 14.9542 31.1118 15.189C30.8118 16.189 30.4291 17.2194 29.9683 18.302C29.6509 17.6846 29.3031 17.0455 28.9509 16.4281H28.9552ZM13.0204 11.6933C12.5291 8.59768 12.9422 6.41942 14.1639 5.72377C14.4639 5.54986 14.8161 5.4716 15.2118 5.4716C16.7509 5.4716 18.99 6.74116 21.4031 9.07595C20.3552 10.202 19.3248 11.489 18.3248 12.902C16.5944 13.0629 14.9596 13.3151 13.4683 13.6629C13.2944 12.9977 13.1509 12.3281 13.0552 11.7107L13.0248 11.6933H13.0204ZM5.82914 20.1586C5.82914 18.5064 8.27262 16.7281 12.3378 15.5716C12.7987 17.0499 13.4031 18.589 14.1161 20.1586C13.4031 21.7151 12.7987 23.2542 12.3378 24.7455C8.29001 23.5846 5.82914 21.8238 5.82914 20.1586ZM19.9074 32.5933C17.477 34.5629 15.3857 35.2933 14.1596 34.5933C12.9378 33.8933 12.5248 31.702 13.0161 28.6238C13.1118 27.989 13.2683 27.3368 13.4291 26.6716C14.9204 27.0194 16.5552 27.2759 18.2857 27.4325C19.2857 28.8281 20.3161 30.1325 21.3639 31.2759C20.8726 31.7542 20.3813 32.2107 19.89 32.6107L19.9074 32.5933ZM31.9726 28.6238C32.4639 31.7194 32.0509 33.8977 30.8291 34.5933C29.6074 35.2933 27.5118 34.5629 25.0813 32.5933C24.59 32.1977 24.0987 31.7368 23.6031 31.2586C24.6683 30.1151 25.6987 28.8281 26.6813 27.4325C28.4118 27.2716 30.0465 27.0194 31.5378 26.6716C31.7118 27.3368 31.8552 28.0064 31.9509 28.6238H31.9683H31.9726ZM32.6552 24.7325C32.1944 23.2542 31.59 21.7151 30.877 20.1455C31.6074 18.5586 32.1944 17.0194 32.6552 15.5586C36.7204 16.7194 39.1639 18.4803 39.1639 20.1455C39.1639 21.8107 36.7204 23.5759 32.6552 24.7325Z" fill="#61DAFB"/>
</g>
<path d="M2.548 60C2.388 60 2.25467 59.952 2.148 59.856C2.052 59.76 2.004 59.648 2.004 59.52V49.28C2.004 49.152 2.052 49.04 2.148 48.944C2.244 48.848 2.356 48.8 2.484 48.8H6.804C7.412 48.8 7.956 48.9333 8.436 49.2C8.916 49.456 9.28933 49.8133 9.556 50.272C9.83333 50.7307 9.972 51.248 9.972 51.824C9.972 52.2933 9.88667 52.7253 9.716 53.12C9.54533 53.5147 9.30533 53.8507 8.996 54.128C8.68667 54.3947 8.34 54.592 7.956 54.72L7.396 54.544C7.79067 54.576 8.15867 54.704 8.5 54.928C8.84133 55.1413 9.11333 55.44 9.316 55.824C9.52933 56.1973 9.64133 56.6507 9.652 57.184C9.66267 57.6427 9.684 58 9.716 58.256C9.75867 58.512 9.81733 58.704 9.892 58.832C9.96667 58.96 10.0627 59.0613 10.18 59.136C10.2867 59.2 10.356 59.2907 10.388 59.408C10.4307 59.5253 10.42 59.6373 10.356 59.744C10.3133 59.8293 10.2493 59.8933 10.164 59.936C10.0893 59.968 10.0093 59.984 9.924 59.984C9.83867 59.984 9.75333 59.9627 9.668 59.92C9.51867 59.8347 9.364 59.7013 9.204 59.52C9.05467 59.3387 8.92667 59.072 8.82 58.72C8.724 58.368 8.676 57.8773 8.676 57.248C8.676 56.832 8.60667 56.4907 8.468 56.224C8.34 55.9573 8.16933 55.7547 7.956 55.616C7.75333 55.4667 7.524 55.3653 7.268 55.312C7.02267 55.248 6.788 55.216 6.564 55.216H2.836L3.012 54.992V59.52C3.012 59.648 2.96933 59.76 2.884 59.856C2.79867 59.952 2.68667 60 2.548 60ZM2.836 54.336H6.852C7.21467 54.304 7.556 54.1867 7.876 53.984C8.196 53.7707 8.452 53.4827 8.644 53.12C8.84667 52.7573 8.948 52.336 8.948 51.856C8.948 51.248 8.74 50.7467 8.324 50.352C7.91867 49.9467 7.38533 49.744 6.724 49.744H2.9L3.012 49.52V54.56L2.836 54.336ZM16.1006 60.16C15.2793 60.16 14.554 59.984 13.9246 59.632C13.2953 59.28 12.8046 58.7893 12.4526 58.16C12.1006 57.5307 11.9246 56.7947 11.9246 55.952C11.9246 55.0453 12.1006 54.272 12.4526 53.632C12.8153 52.992 13.2793 52.5013 13.8446 52.16C14.4206 51.808 15.0286 51.632 15.6686 51.632C16.138 51.632 16.5913 51.7173 17.0286 51.888C17.4766 52.048 17.8713 52.2933 18.2126 52.624C18.5646 52.944 18.842 53.3387 19.0446 53.808C19.258 54.2773 19.3753 54.8213 19.3966 55.44C19.386 55.568 19.3326 55.68 19.2366 55.776C19.1406 55.8613 19.0286 55.904 18.9006 55.904H12.4846L12.2926 55.04H18.5966L18.3886 55.232V54.912C18.346 54.4107 18.186 53.984 17.9086 53.632C17.6313 53.28 17.2953 53.0133 16.9006 52.832C16.506 52.6507 16.0953 52.56 15.6686 52.56C15.3486 52.56 15.018 52.624 14.6766 52.752C14.346 52.88 14.042 53.0827 13.7646 53.36C13.498 53.6267 13.2793 53.9733 13.1086 54.4C12.938 54.816 12.8526 55.312 12.8526 55.888C12.8526 56.5173 12.9806 57.088 13.2366 57.6C13.4926 58.112 13.8606 58.5173 14.3406 58.816C14.8313 59.1147 15.4126 59.264 16.0846 59.264C16.458 59.264 16.794 59.2107 17.0926 59.104C17.3913 58.9973 17.6526 58.8587 17.8766 58.688C18.1006 58.5067 18.2873 58.32 18.4366 58.128C18.554 58.032 18.6713 57.984 18.7886 57.984C18.8953 57.984 18.986 58.0267 19.0606 58.112C19.146 58.1973 19.1886 58.2933 19.1886 58.4C19.1886 58.528 19.1353 58.64 19.0286 58.736C18.7086 59.12 18.2926 59.456 17.7806 59.744C17.2686 60.0213 16.7086 60.16 16.1006 60.16ZM28.218 51.824C28.3567 51.824 28.4687 51.872 28.554 51.968C28.65 52.064 28.698 52.1813 28.698 52.32V59.52C28.698 59.648 28.65 59.76 28.554 59.856C28.458 59.952 28.346 60 28.218 60C28.0793 60 27.962 59.952 27.866 59.856C27.7807 59.76 27.738 59.648 27.738 59.52V57.616L28.01 57.488C28.01 57.7867 27.9247 58.0907 27.754 58.4C27.594 58.7093 27.37 58.9973 27.082 59.264C26.794 59.5307 26.4527 59.7493 26.058 59.92C25.674 60.08 25.258 60.16 24.81 60.16C24.0847 60.16 23.434 59.9733 22.858 59.6C22.2927 59.2267 21.8447 58.7147 21.514 58.064C21.194 57.4133 21.034 56.6827 21.034 55.872C21.034 55.04 21.1993 54.3093 21.53 53.68C21.8607 53.04 22.3087 52.5387 22.874 52.176C23.4393 51.8133 24.0793 51.632 24.794 51.632C25.2527 51.632 25.6793 51.712 26.074 51.872C26.4793 52.032 26.8313 52.2507 27.13 52.528C27.4287 52.8053 27.658 53.1253 27.818 53.488C27.9887 53.84 28.074 54.208 28.074 54.592L27.738 54.352V52.32C27.738 52.1813 27.7807 52.064 27.866 51.968C27.962 51.872 28.0793 51.824 28.218 51.824ZM24.89 59.264C25.4553 59.264 25.9567 59.12 26.394 58.832C26.8313 58.5333 27.1727 58.128 27.418 57.616C27.674 57.0933 27.802 56.512 27.802 55.872C27.802 55.2427 27.674 54.6773 27.418 54.176C27.1727 53.6747 26.8313 53.2747 26.394 52.976C25.9567 52.6773 25.4553 52.528 24.89 52.528C24.3353 52.528 23.834 52.672 23.386 52.96C22.9487 53.248 22.602 53.6427 22.346 54.144C22.1007 54.6453 21.978 55.2213 21.978 55.872C21.978 56.512 22.1007 57.0933 22.346 57.616C22.602 58.128 22.9487 58.5333 23.386 58.832C23.8233 59.12 24.3247 59.264 24.89 59.264ZM34.8171 51.632C35.3291 51.632 35.7985 51.6907 36.2251 51.808C36.6518 51.9147 36.9931 52.064 37.2491 52.256C37.5158 52.448 37.6491 52.656 37.6491 52.88C37.6491 52.9867 37.6118 53.0933 37.5371 53.2C37.4625 53.296 37.3611 53.344 37.2331 53.344C37.1051 53.344 36.9985 53.312 36.9131 53.248C36.8385 53.184 36.7585 53.1093 36.6731 53.024C36.5985 52.9387 36.4865 52.8587 36.3371 52.784C36.1985 52.72 36.0011 52.6613 35.7451 52.608C35.4891 52.5547 35.1958 52.528 34.8651 52.528C34.2678 52.528 33.7291 52.6773 33.2491 52.976C32.7691 53.2747 32.3905 53.68 32.1131 54.192C31.8358 54.6933 31.6971 55.2587 31.6971 55.888C31.6971 56.528 31.8305 57.104 32.0971 57.616C32.3638 58.128 32.7318 58.5333 33.2011 58.832C33.6705 59.12 34.2198 59.264 34.8491 59.264C35.2758 59.264 35.6065 59.2267 35.8411 59.152C36.0758 59.0773 36.2785 58.992 36.4491 58.896C36.6518 58.7787 36.7958 58.6667 36.8811 58.56C36.9771 58.4427 37.0998 58.384 37.2491 58.384C37.3878 58.384 37.4891 58.4267 37.5531 58.512C37.6278 58.5867 37.6651 58.688 37.6651 58.816C37.6651 58.9867 37.5371 59.1787 37.2811 59.392C37.0358 59.5947 36.6945 59.776 36.2571 59.936C35.8198 60.0853 35.3185 60.16 34.7531 60.16C33.9531 60.16 33.2491 59.9733 32.6411 59.6C32.0438 59.2267 31.5745 58.72 31.2331 58.08C30.9025 57.4293 30.7371 56.6987 30.7371 55.888C30.7371 55.1093 30.9078 54.4 31.2491 53.76C31.5905 53.12 32.0651 52.608 32.6731 52.224C33.2918 51.8293 34.0065 51.632 34.8171 51.632ZM38.9704 51.856H42.6984C42.8264 51.856 42.933 51.904 43.0184 52C43.1037 52.0853 43.1464 52.192 43.1464 52.32C43.1464 52.4373 43.1037 52.5387 43.0184 52.624C42.933 52.7093 42.8264 52.752 42.6984 52.752H38.9704C38.8424 52.752 38.7304 52.7093 38.6344 52.624C38.549 52.528 38.5064 52.4213 38.5064 52.304C38.5064 52.176 38.549 52.0693 38.6344 51.984C38.7304 51.8987 38.8424 51.856 38.9704 51.856ZM40.6184 49.6C40.757 49.6 40.869 49.648 40.9544 49.744C41.0504 49.84 41.0984 49.952 41.0984 50.08V58.112C41.0984 58.4107 41.1357 58.6347 41.2104 58.784C41.2957 58.9333 41.4024 59.0347 41.5304 59.088C41.6584 59.1307 41.7864 59.152 41.9144 59.152C41.9997 59.152 42.0744 59.1413 42.1384 59.12C42.213 59.088 42.293 59.072 42.3784 59.072C42.4744 59.072 42.5544 59.1093 42.6184 59.184C42.693 59.2587 42.7304 59.3547 42.7304 59.472C42.7304 59.6213 42.645 59.7493 42.4744 59.856C42.3037 59.952 42.101 60 41.8664 60C41.7704 60 41.6264 59.9947 41.4344 59.984C41.2424 59.9627 41.045 59.904 40.8424 59.808C40.6397 59.7013 40.469 59.52 40.3304 59.264C40.2024 59.008 40.1384 58.64 40.1384 58.16V50.08C40.1384 49.952 40.181 49.84 40.2664 49.744C40.3624 49.648 40.4797 49.6 40.6184 49.6Z" fill="#F8F7E5"/>
<defs>
<clipPath id="clip0_2286_934">
<rect width="40" height="40" fill="white" transform="translate(2.5)"/>
</clipPath>
</defs>
</svg>
