<svg width="50" height="63" viewBox="0 0 50 63" fill="none" xmlns="http://www.w3.org/2000/svg">
<g clip-path="url(#clip0_2286_941)">
<path d="M38.2465 2.85547H27.8623L25 7.81166L22.1377 2.85547H11.7535H5L25 37.4994L45 2.85547H38.2465Z" fill="white"/>
<path d="M28.9035 4.65234L25.0033 11.4059L21.103 4.65234H8.11719L25.0078 33.9042L41.8939 4.65234H28.908H28.9035Z" fill="#41B883"/>
<path d="M28.9 4.65234L24.9997 11.4059L21.0995 4.65234H14.8672L24.9997 22.2035L35.1323 4.65234H28.9Z" fill="#34495E"/>
</g>
<path d="M10.1 48.784C10.2493 48.784 10.3667 48.8267 10.452 48.912C10.548 48.9973 10.596 49.104 10.596 49.232C10.596 49.3067 10.58 49.3867 10.548 49.472L6.276 59.68C6.22267 59.7867 6.15333 59.8667 6.068 59.92C5.98267 59.9733 5.89733 60 5.812 60C5.716 60 5.62533 59.9733 5.54 59.92C5.45467 59.8667 5.396 59.792 5.364 59.696L1.108 49.504C1.09733 49.472 1.08667 49.4347 1.076 49.392C1.06533 49.3493 1.06 49.3013 1.06 49.248C1.06 49.1093 1.108 48.9973 1.204 48.912C1.31067 48.8267 1.41733 48.784 1.524 48.784C1.748 48.784 1.908 48.9013 2.004 49.136L6.004 58.704H5.716L9.652 49.104C9.75867 48.8907 9.908 48.784 10.1 48.784ZM18.3604 51.872C18.499 51.872 18.611 51.92 18.6964 52.016C18.7924 52.112 18.8404 52.224 18.8404 52.352V56.864C18.8404 57.92 18.5417 58.7253 17.9444 59.28C17.347 59.8347 16.5417 60.112 15.5284 60.112C14.5257 60.112 13.7257 59.8347 13.1284 59.28C12.5417 58.7253 12.2484 57.92 12.2484 56.864V52.352C12.2484 52.224 12.291 52.112 12.3764 52.016C12.4724 51.92 12.5897 51.872 12.7284 51.872C12.867 51.872 12.979 51.92 13.0644 52.016C13.1604 52.112 13.2084 52.224 13.2084 52.352V56.864C13.2084 57.632 13.411 58.2187 13.8164 58.624C14.2324 59.0187 14.803 59.216 15.5284 59.216C16.2644 59.216 16.8404 59.0187 17.2564 58.624C17.6724 58.2187 17.8804 57.632 17.8804 56.864V52.352C17.8804 52.224 17.923 52.112 18.0084 52.016C18.0937 51.92 18.211 51.872 18.3604 51.872ZM25.0538 60.16C24.2324 60.16 23.5071 59.984 22.8778 59.632C22.2484 59.28 21.7578 58.7893 21.4058 58.16C21.0538 57.5307 20.8778 56.7947 20.8778 55.952C20.8778 55.0453 21.0538 54.272 21.4058 53.632C21.7684 52.992 22.2324 52.5013 22.7978 52.16C23.3738 51.808 23.9818 51.632 24.6218 51.632C25.0911 51.632 25.5444 51.7173 25.9818 51.888C26.4298 52.048 26.8244 52.2933 27.1658 52.624C27.5178 52.944 27.7951 53.3387 27.9978 53.808C28.2111 54.2773 28.3284 54.8213 28.3498 55.44C28.3391 55.568 28.2858 55.68 28.1898 55.776C28.0938 55.8613 27.9818 55.904 27.8538 55.904H21.4378L21.2458 55.04H27.5498L27.3418 55.232V54.912C27.2991 54.4107 27.1391 53.984 26.8618 53.632C26.5844 53.28 26.2484 53.0133 25.8538 52.832C25.4591 52.6507 25.0484 52.56 24.6218 52.56C24.3018 52.56 23.9711 52.624 23.6298 52.752C23.2991 52.88 22.9951 53.0827 22.7178 53.36C22.4511 53.6267 22.2324 53.9733 22.0618 54.4C21.8911 54.816 21.8058 55.312 21.8058 55.888C21.8058 56.5173 21.9338 57.088 22.1898 57.6C22.4458 58.112 22.8138 58.5173 23.2938 58.816C23.7844 59.1147 24.3658 59.264 25.0378 59.264C25.4111 59.264 25.7471 59.2107 26.0458 59.104C26.3444 58.9973 26.6058 58.8587 26.8298 58.688C27.0538 58.5067 27.2404 58.32 27.3898 58.128C27.5071 58.032 27.6244 57.984 27.7418 57.984C27.8484 57.984 27.9391 58.0267 28.0138 58.112C28.0991 58.1973 28.1418 58.2933 28.1418 58.4C28.1418 58.528 28.0884 58.64 27.9818 58.736C27.6618 59.12 27.2458 59.456 26.7338 59.744C26.2218 60.0213 25.6618 60.16 25.0538 60.16ZM30.5326 60C30.3513 60 30.2126 59.9413 30.1166 59.824C30.0206 59.7067 29.9726 59.5573 29.9726 59.376V59.04C29.9726 58.848 30.0206 58.6987 30.1166 58.592C30.2126 58.4853 30.3513 58.432 30.5326 58.432H30.6446C30.826 58.432 30.9646 58.4853 31.0606 58.592C31.1566 58.6987 31.2046 58.848 31.2046 59.04V59.376C31.2046 59.5573 31.1566 59.7067 31.0606 59.824C30.9646 59.9413 30.826 60 30.6446 60H30.5326ZM36.1913 60.16C35.5193 60.16 34.9166 59.9733 34.3832 59.6C33.8499 59.2267 33.4446 58.736 33.1673 58.128C33.1139 58.032 33.0872 57.9467 33.0872 57.872C33.0872 57.7333 33.1406 57.6267 33.2473 57.552C33.3539 57.4667 33.4606 57.424 33.5673 57.424C33.6739 57.424 33.7593 57.4507 33.8233 57.504C33.8979 57.5573 33.9619 57.6213 34.0153 57.696C34.2179 58.144 34.5113 58.5067 34.8953 58.784C35.2793 59.0613 35.7113 59.2 36.1913 59.2C36.6819 59.2 37.1139 59.0987 37.4873 58.896C37.8606 58.6827 38.1486 58.3893 38.3513 58.016C38.5646 57.6427 38.6713 57.216 38.6713 56.736V49.28C38.6713 49.152 38.7193 49.04 38.8153 48.944C38.9219 48.848 39.0446 48.8 39.1833 48.8C39.3326 48.8 39.4499 48.848 39.5353 48.944C39.6313 49.04 39.6793 49.152 39.6793 49.28V56.736C39.6793 57.3973 39.5299 57.9893 39.2313 58.512C38.9326 59.024 38.5219 59.4293 37.9993 59.728C37.4766 60.016 36.8739 60.16 36.1913 60.16ZM41.9875 58.704C41.9022 58.576 41.8595 58.4533 41.8595 58.336C41.8702 58.208 41.9395 58.1067 42.0675 58.032C42.1528 57.9573 42.2488 57.9253 42.3555 57.936C42.4728 57.9467 42.5795 58 42.6755 58.096C42.9635 58.4693 43.3102 58.7733 43.7155 59.008C44.1315 59.232 44.6222 59.344 45.1875 59.344C45.4862 59.344 45.7795 59.296 46.0675 59.2C46.3662 59.0933 46.6115 58.9387 46.8035 58.736C46.9955 58.5227 47.0915 58.256 47.0915 57.936C47.0915 57.6053 46.9955 57.3387 46.8035 57.136C46.6115 56.9333 46.3608 56.7733 46.0515 56.656C45.7528 56.5387 45.4328 56.4373 45.0915 56.352C44.7288 56.256 44.3768 56.1493 44.0355 56.032C43.6942 55.904 43.3902 55.7493 43.1235 55.568C42.8675 55.376 42.6595 55.1467 42.4995 54.88C42.3395 54.6133 42.2595 54.288 42.2595 53.904C42.2595 53.456 42.3822 53.0613 42.6275 52.72C42.8728 52.3787 43.2035 52.112 43.6195 51.92C44.0462 51.728 44.5262 51.632 45.0595 51.632C45.3262 51.632 45.6142 51.6693 45.9235 51.744C46.2328 51.808 46.5368 51.92 46.8355 52.08C47.1342 52.24 47.4008 52.4587 47.6355 52.736C47.7315 52.832 47.7795 52.944 47.7795 53.072C47.7795 53.1893 47.7262 53.296 47.6195 53.392C47.5342 53.456 47.4328 53.488 47.3155 53.488C47.2088 53.488 47.1182 53.4453 47.0435 53.36C46.7875 53.072 46.4835 52.8533 46.1315 52.704C45.7795 52.5547 45.4008 52.48 44.9955 52.48C44.6862 52.48 44.3928 52.5333 44.1155 52.64C43.8488 52.736 43.6248 52.8853 43.4435 53.088C43.2622 53.2907 43.1715 53.5573 43.1715 53.888C43.1928 54.1973 43.2995 54.448 43.4915 54.64C43.6942 54.832 43.9555 54.992 44.2755 55.12C44.6062 55.248 44.9742 55.3653 45.3795 55.472C45.7208 55.5573 46.0462 55.6587 46.3555 55.776C46.6755 55.8933 46.9528 56.0427 47.1875 56.224C47.4328 56.3947 47.6248 56.6133 47.7635 56.88C47.9128 57.1467 47.9875 57.4827 47.9875 57.888C47.9875 58.3573 47.8542 58.7627 47.5875 59.104C47.3315 59.4453 46.9848 59.7067 46.5475 59.888C46.1102 60.0693 45.6248 60.16 45.0915 60.16C44.5155 60.16 43.9555 60.048 43.4115 59.824C42.8782 59.6 42.4035 59.2267 41.9875 58.704Z" fill="#F8F7E5"/>
<defs>
<clipPath id="clip0_2286_941">
<rect width="40" height="34.6439" fill="white" transform="translate(5 2.85547)"/>
</clipPath>
</defs>
</svg>
