<svg width="39" height="45" viewBox="0 0 39 45" fill="none" xmlns="http://www.w3.org/2000/svg">
<path d="M21.2891 2.5C21.2891 1.39543 20.3936 0.5 19.2891 0.5C18.1845 0.5 17.2891 1.39543 17.2891 2.5H21.2891ZM17.8748 43.9142C18.6559 44.6953 19.9222 44.6953 20.7033 43.9142L33.4312 31.1863C34.2122 30.4052 34.2122 29.1389 33.4312 28.3579C32.6501 27.5768 31.3838 27.5768 30.6028 28.3579L19.2891 39.6716L7.97535 28.3579C7.19431 27.5768 5.92798 27.5768 5.14693 28.3579C4.36588 29.1389 4.36588 30.4052 5.14693 31.1863L17.8748 43.9142ZM17.2891 2.5V42.5H21.2891V2.5H17.2891Z" fill="#F8F7E5"/>
</svg>
