<svg width="30" height="40" viewBox="0 0 30 40" fill="none" xmlns="http://www.w3.org/2000/svg">
<path d="M8.52185 18.3372C9.17113 18.3372 9.78106 18.0815 10.2401 17.6224C10.9025 16.96 11.1255 16.0025 10.8173 15.104C10.555 14.3432 9.89911 13.7857 9.13178 13.5431C7.83978 13.143 6.88881 12.7954 6.14772 12.4675C6.14772 12.4675 6.1346 12.4675 6.12804 12.4609C5.41974 12.1461 5.3148 11.1886 5.91817 10.7033C6.28544 10.4147 6.67895 10.1524 6.98719 9.95563C9.53184 8.37506 14.044 6.64365 20.3925 4.80074C21.4091 4.50561 22.1961 3.62679 22.2486 2.57089C22.3207 1.12148 21.1599 0 19.8154 0C19.5859 0 19.3563 0.0327919 19.1399 0.0983758C12.2273 2.09868 7.41349 3.96782 4.43598 5.81729C1.45847 7.66675 0.015625 9.71953 0.015625 12.1068C0.015625 15.0581 3.14398 16.455 4.17364 16.9141C5.11805 17.3338 6.27233 17.7536 7.80043 18.2258C8.03653 18.2979 8.27919 18.3372 8.52185 18.3372Z" fill="#FF834F"/>
<path d="M24.492 9.87111C24.033 9.41203 23.423 9.15625 22.7737 9.15625C22.1245 9.15625 21.5145 9.41203 21.0554 9.87111L4.04299 26.877C3.5839 27.3361 3.32812 27.946 3.32812 28.5953C3.32812 29.2446 3.5839 29.8545 4.04299 30.3202C4.50208 30.7792 5.11201 31.035 5.76129 31.035C6.41057 31.035 7.0205 30.7792 7.47958 30.3202L24.492 13.3077C25.443 12.3567 25.443 10.8155 24.492 9.86456V9.87111Z" fill="#FF834F"/>
<path d="M27.5471 24.506C26.8519 23.8239 25.9075 23.214 24.668 22.6369C23.8547 22.2565 22.8906 21.8826 21.7232 21.4957C21.474 21.4104 21.2117 21.3711 20.9493 21.3711C20.3066 21.3711 19.6836 21.6334 19.2311 22.086C18.5752 22.7418 18.3457 23.6993 18.6474 24.5913C18.8966 25.3389 19.5327 25.8964 20.2738 26.1456C21.2182 26.467 21.9856 26.7621 22.6152 27.0507C22.7857 27.1294 22.9431 27.2081 23.0808 27.2802C23.7432 27.6278 23.835 28.5329 23.2579 29.0051C22.7332 29.4314 21.9265 29.9691 20.6805 30.6119C18.0046 31.9957 14.4565 33.2811 11.0134 34.5272L10.8166 34.5994C10.2067 34.8223 9.6099 35.0388 9.03276 35.2486C8.54744 35.4257 8.10803 35.7274 7.8129 36.1537C7.3407 36.8358 7.24232 37.6621 7.52433 38.4163C7.87848 39.3608 8.79666 39.9969 9.80009 39.9969C10.0887 39.9969 10.3707 39.9444 10.6396 39.8461C11.2954 39.6034 11.9709 39.3608 12.6792 39.105C16.2535 37.8064 19.9525 36.4685 22.9103 34.9404C25.5074 33.6025 28.9703 31.4317 29.0818 28.0606C29.1277 26.7621 28.5964 25.5357 27.5471 24.5126V24.506Z" fill="#FF834F"/>
</svg>
